Coordinates
version=1
nRows=20
nColumns=38
inDegrees=no

Units are S.I. units (second, meters, Newtons, ...)
If the header above contains a line with 'inDegrees', this indicates whether rotational values are in degrees (yes) or radians (no).

endheader
time	pelvis_tilt	pelvis_list	pelvis_rotation	pelvis_tx	pelvis_ty	pelvis_tz	hip_flexion_r	hip_adduction_r	hip_rotation_r	knee_angle_r	ankle_angle_r	subtalar_angle_r	mtp_angle_r	hip_flexion_l	hip_adduction_l	hip_rotation_l	knee_angle_l	ankle_angle_l	subtalar_angle_l	mtp_angle_l	lumbar_extension	lumbar_bending	lumbar_rotation	arm_flex_r	arm_add_r	arm_rot_r	elbow_flex_r	pro_sup_r	wrist_flex_r	wrist_dev_r	arm_flex_l	arm_add_l	arm_rot_l	elbow_flex_l	pro_sup_l	wrist_flex_l	wrist_dev_l
0.54	-2.90379	1.37483	-1.88667	0.539045	0.242148	1.06031	0.257087	-0.0190183	0.0785477	1.10444	-0.0917247	0	0	-0.21415	0.11318	-0.314678	0.305622	-0.153149	0	0	-0.374033	-0.0870714	-0.0931651	-0.16756	-0.12262	-0.325344	0.495817	0.632687	0	0	0.0931126	-0.687613	0.605114	0.697775	1.01767	0	0
0.55	-2.91567	1.37863	-1.87088	0.538078	0.252811	1.06001	0.273099	-0.0176149	0.074266	1.07026	-0.0892106	0	0	-0.225922	0.112159	-0.309756	0.297249	-0.150923	0	0	-0.369552	-0.0788646	-0.0989175	-0.165856	-0.123426	-0.33258	0.497391	0.642743	0	0	0.106032	-0.69545	0.607115	0.707026	1.02125	0	0
0.56	-2.92485	1.38213	-1.8582	0.537165	0.263468	1.05952	0.287853	-0.0177235	0.0688386	1.03409	-0.0850595	0	0	-0.237811	0.111846	-0.304728	0.288747	-0.148867	0	0	-0.36564	-0.0714259	-0.10319	-0.166881	-0.127385	-0.327217	0.502447	0.638888	0	0	0.12202	-0.704465	0.61712	0.716173	1.02068	0	0
0.57	-2.93033	1.38642	-1.8497	0.536376	0.274168	1.05875	0.302755	-0.0190078	0.0619768	0.996221	-0.0821182	0	0	-0.248248	0.111668	-0.300431	0.281283	-0.146659	0	0	-0.360559	-0.0648313	-0.106633	-0.167932	-0.131372	-0.321365	0.507061	0.636888	0	0	0.137865	-0.712819	0.626258	0.724929	1.02133	0	0
0.58	-2.93249	1.39148	-1.8449	0.53572	0.284911	1.05772	0.317909	-0.0214107	0.0532428	0.956572	-0.0810261	0	0	-0.257425	0.111594	-0.296116	0.274646	-0.143996	0	0	-0.354296	-0.0590684	-0.109603	-0.16921	-0.13503	-0.316736	0.511585	0.635328	0	0	0.153235	-0.720828	0.634736	0.733568	1.02233	0	0
0.59	-2.92955	1.39757	-1.84538	0.535184	0.29577	1.05649	0.333725	-0.0250193	0.0413715	0.915572	-0.0824421	0	0	-0.265465	0.112121	-0.290581	0.267707	-0.140802	0	0	-0.346823	-0.0542766	-0.113005	-0.166057	-0.128589	-0.351921	0.511557	0.677961	0	0	0.157226	-0.720433	0.604741	0.740967	1.05733	0	0
0.6	-2.92518	1.40201	-1.84762	0.534752	0.306618	1.05513	0.347596	-0.029816	0.0258479	0.874099	-0.0842731	0	0	-0.275205	0.113197	-0.284916	0.260778	-0.137473	0	0	-0.341777	-0.0500526	-0.111775	-0.172444	-0.133632	-0.341441	0.522203	0.663677	0	0	0.191601	-0.739333	0.671479	0.750921	1.01188	0	0
0.61	-2.91553	1.40777	-1.85534	0.534409	0.317642	1.05355	0.362839	-0.035433	0.00684919	0.832819	-0.086241	0	0	-0.283016	0.1144	-0.280329	0.255133	-0.13413	0	0	-0.334255	-0.0467779	-0.113409	-0.174751	-0.134806	-0.344707	0.527873	0.670945	0	0	0.2066	-0.747217	0.681664	0.759836	1.01203	0	0
0.62	-2.90452	1.41312	-1.86444	0.534112	0.328787	1.05188	0.377622	-0.04166	-0.0170779	0.79245	-0.0887059	0	0	-0.291077	0.115682	-0.276848	0.250169	-0.130716	0	0	-0.327163	-0.0437783	-0.114567	-0.177839	-0.136106	-0.347479	0.534223	0.678893	0	0	0.221659	-0.754591	0.692442	0.768341	1.01434	0	0
0.63	-2.88856	1.41925	-1.87864	0.533875	0.340083	1.05007	0.393463	-0.0482635	-0.0454212	0.75452	-0.0890825	0	0	-0.29795	0.117107	-0.275099	0.246283	-0.127884	0	0	-0.317333	-0.0417557	-0.119836	-0.179213	-0.141749	-0.332107	0.537134	0.670186	0	0	0.222064	-0.757623	0.672382	0.776567	1.0372	0	0
0.64	-2.8743	1.42352	-1.89138	0.533702	0.351325	1.04836	0.406414	-0.0552716	-0.0772709	0.717667	-0.0926229	0	0	-0.307507	0.119288	-0.27059	0.240779	-0.125006	0	0	-0.311292	-0.039552	-0.120777	-0.182655	-0.143808	-0.331407	0.544077	0.668473	0	0	0.237974	-0.765859	0.689642	0.784635	1.03558	0	0
0.65	-2.86039	1.42732	-1.90356	0.533568	0.36257	1.04667	0.41722	-0.0621952	-0.110413	0.681964	-0.0965293	0	0	-0.317207	0.121177	-0.266658	0.236161	-0.122466	0	0	-0.30615	-0.0372427	-0.121434	-0.185935	-0.145547	-0.331598	0.550791	0.667363	0	0	0.254631	-0.773239	0.707341	0.791846	1.03214	0	0
0.66	-2.84968	1.43019	-1.91207	0.533536	0.373852	1.04509	0.424382	-0.06815	-0.143564	0.647483	-0.100552	0	0	-0.327634	0.122279	-0.262702	0.232369	-0.120193	0	0	-0.303355	-0.0344242	-0.120379	-0.187072	-0.138205	-0.364545	0.556553	0.700691	0	0	0.271481	-0.777028	0.718494	0.79703	1.03783	0	0
0.67	-2.83919	1.43326	-1.92018	0.53368	0.385201	1.04347	0.430029	-0.0728628	-0.173525	0.615516	-0.0994072	0	0	-0.336717	0.122202	-0.260846	0.231289	-0.118138	0	0	-0.299046	-0.0320062	-0.121802	-0.189517	-0.139606	-0.362792	0.56169	0.698281	0	0	0.287837	-0.784312	0.739364	0.802849	1.03208	0	0
0.68	-2.83313	1.4358	-1.92309	0.533897	0.396593	1.04188	0.433578	-0.0763751	-0.200566	0.58703	-0.0974441	0	0	-0.345829	0.120891	-0.258893	0.231625	-0.115942	0	0	-0.295955	-0.0289442	-0.123369	-0.192044	-0.140615	-0.361845	0.567052	0.697713	0	0	0.303967	-0.790805	0.759507	0.808171	1.02848	0	0
0.69	-2.83193	1.43818	-1.92035	0.534166	0.408059	1.04029	0.435991	-0.0783166	-0.22346	0.564203	-0.0949263	0	0	-0.354264	0.118058	-0.257877	0.23437	-0.113416	0	0	-0.293438	-0.0250055	-0.125513	-0.194468	-0.141234	-0.361907	0.572579	0.698691	0	0	0.318932	-0.79618	0.77739	0.812691	1.02481	0	0
0.7	-2.83732	1.44019	-1.91003	0.534482	0.419604	1.03879	0.436792	-0.0780655	-0.24041	0.547412	-0.0919401	0	0	-0.36243	0.113566	-0.257524	0.239501	-0.110759	0	0	-0.291763	-0.0200985	-0.128527	-0.196705	-0.141733	-0.361958	0.577853	0.701892	0	0	0.332757	-0.800943	0.793978	0.816857	1.02086	0	0
0.71	-2.84786	1.44185	-1.89374	0.534849	0.431267	1.03742	0.435888	-0.0759791	-0.25007	0.535766	-0.0881214	0	0	-0.370422	0.107735	-0.257497	0.24638	-0.108538	0	0	-0.290698	-0.0145474	-0.132358	-0.198778	-0.142482	-0.360566	0.582218	0.707499	0	0	0.344477	-0.804837	0.807557	0.820623	1.01864	0	0
0.72	-2.86448	1.44295	-1.8708	0.535278	0.443107	1.03623	0.43312	-0.0727565	-0.254213	0.528938	-0.0830287	0	0	-0.378453	0.100469	-0.25813	0.255091	-0.105741	0	0	-0.290415	-0.00820508	-0.138021	-0.197171	-0.135822	-0.384354	0.583593	0.749539	0	0	0.341447	-0.802927	0.7863	0.823555	1.04208	0	0
0.73	-2.88076	1.44373	-1.84863	0.535824	0.455098	1.03514	0.429377	-0.0687432	-0.251537	0.527419	-0.0815512	0	0	-0.386563	0.0932498	-0.257884	0.263894	-0.105529	0	0	-0.28972	-0.00207195	-0.143037	-0.196834	-0.135148	-0.387415	0.585268	0.747274	0	0	0.348549	-0.806	0.797289	0.826114	1.03591	0	0
